<mxfile host="app.diagrams.net" agent="Mozilla/5.0 (X11; Linux x86_64) AppleWebKit/537.36 (KHTML, like Gecko) Chrome/130.0.0.0 Safari/537.36" version="25.0.1">
  <diagram name="Side-1" id="PSjFFdakl7ENxjH9uB0a">
    <mxGraphModel dx="1434" dy="2408" grid="1" gridSize="10" guides="1" tooltips="1" connect="1" arrows="1" fold="1" page="1" pageScale="1" pageWidth="1169" pageHeight="1654" math="1" shadow="0">
      <root>
        <mxCell id="0" />
        <mxCell id="1" parent="0" />
        <mxCell id="WWqpmh0n9zRF0Py3i-tm-1" value="" style="rounded=0;whiteSpace=wrap;html=1;" parent="1" vertex="1">
          <mxGeometry x="300" y="40" width="400" height="200" as="geometry" />
        </mxCell>
        <mxCell id="WWqpmh0n9zRF0Py3i-tm-2" value="$$\theta$$" style="text;html=1;align=center;verticalAlign=middle;whiteSpace=wrap;rounded=0;" parent="1" vertex="1">
          <mxGeometry x="250" y="125" width="60" height="30" as="geometry" />
        </mxCell>
        <mxCell id="WWqpmh0n9zRF0Py3i-tm-3" value="$$\varphi $$" style="text;html=1;align=center;verticalAlign=middle;whiteSpace=wrap;rounded=0;" parent="1" vertex="1">
          <mxGeometry x="640" y="10" width="60" height="30" as="geometry" />
        </mxCell>
        <mxCell id="WWqpmh0n9zRF0Py3i-tm-4" value="" style="endArrow=classic;html=1;rounded=0;" parent="1" edge="1">
          <mxGeometry width="50" height="50" relative="1" as="geometry">
            <mxPoint x="520" y="540" as="sourcePoint" />
            <mxPoint x="920" y="540" as="targetPoint" />
          </mxGeometry>
        </mxCell>
        <mxCell id="WWqpmh0n9zRF0Py3i-tm-5" value="" style="endArrow=classic;html=1;rounded=0;" parent="1" edge="1">
          <mxGeometry width="50" height="50" relative="1" as="geometry">
            <mxPoint x="720" y="540" as="sourcePoint" />
            <mxPoint x="720" y="380" as="targetPoint" />
          </mxGeometry>
        </mxCell>
        <mxCell id="WWqpmh0n9zRF0Py3i-tm-8" value="$$\theta$$" style="text;html=1;align=center;verticalAlign=middle;whiteSpace=wrap;rounded=0;" parent="1" vertex="1">
          <mxGeometry x="900" y="530" width="60" height="30" as="geometry" />
        </mxCell>
        <mxCell id="WWqpmh0n9zRF0Py3i-tm-9" value="" style="endArrow=classic;html=1;rounded=0;" parent="1" edge="1">
          <mxGeometry width="50" height="50" relative="1" as="geometry">
            <mxPoint x="80" y="540" as="sourcePoint" />
            <mxPoint x="480" y="540" as="targetPoint" />
          </mxGeometry>
        </mxCell>
        <mxCell id="WWqpmh0n9zRF0Py3i-tm-10" value="" style="endArrow=classic;html=1;rounded=0;" parent="1" edge="1">
          <mxGeometry width="50" height="50" relative="1" as="geometry">
            <mxPoint x="280" y="540" as="sourcePoint" />
            <mxPoint x="280" y="380" as="targetPoint" />
          </mxGeometry>
        </mxCell>
        <mxCell id="WWqpmh0n9zRF0Py3i-tm-11" value="$$\theta$$" style="text;html=1;align=center;verticalAlign=middle;whiteSpace=wrap;rounded=0;" parent="1" vertex="1">
          <mxGeometry x="460" y="530" width="60" height="30" as="geometry" />
        </mxCell>
        <mxCell id="WWqpmh0n9zRF0Py3i-tm-12" value="E-plane" style="text;html=1;align=center;verticalAlign=middle;whiteSpace=wrap;rounded=0;" parent="1" vertex="1">
          <mxGeometry x="250" y="320" width="60" height="30" as="geometry" />
        </mxCell>
        <mxCell id="WWqpmh0n9zRF0Py3i-tm-13" value="H-plane" style="text;html=1;align=center;verticalAlign=middle;whiteSpace=wrap;rounded=0;" parent="1" vertex="1">
          <mxGeometry x="690" y="320" width="60" height="30" as="geometry" />
        </mxCell>
        <mxCell id="WWqpmh0n9zRF0Py3i-tm-14" value="$$0^o$$" style="text;html=1;align=center;verticalAlign=middle;whiteSpace=wrap;rounded=0;" parent="1" vertex="1">
          <mxGeometry x="270" y="10" width="60" height="30" as="geometry" />
        </mxCell>
        <mxCell id="WWqpmh0n9zRF0Py3i-tm-15" value="$$90^o$$" style="text;html=1;align=center;verticalAlign=middle;whiteSpace=wrap;rounded=0;" parent="1" vertex="1">
          <mxGeometry x="370" y="10" width="60" height="30" as="geometry" />
        </mxCell>
        <mxCell id="WWqpmh0n9zRF0Py3i-tm-16" value="$$180^o$$" style="text;html=1;align=center;verticalAlign=middle;whiteSpace=wrap;rounded=0;" parent="1" vertex="1">
          <mxGeometry x="470" y="10" width="60" height="30" as="geometry" />
        </mxCell>
        <mxCell id="WWqpmh0n9zRF0Py3i-tm-17" value="$$270^o$$" style="text;html=1;align=center;verticalAlign=middle;whiteSpace=wrap;rounded=0;" parent="1" vertex="1">
          <mxGeometry x="570" y="10" width="60" height="30" as="geometry" />
        </mxCell>
        <mxCell id="WWqpmh0n9zRF0Py3i-tm-18" value="" style="endArrow=none;html=1;rounded=0;exitX=0.25;exitY=1;exitDx=0;exitDy=0;entryX=0.5;entryY=1;entryDx=0;entryDy=0;" parent="1" source="WWqpmh0n9zRF0Py3i-tm-1" target="WWqpmh0n9zRF0Py3i-tm-15" edge="1">
          <mxGeometry width="50" height="50" relative="1" as="geometry">
            <mxPoint x="390" y="230" as="sourcePoint" />
            <mxPoint x="440" y="180" as="targetPoint" />
          </mxGeometry>
        </mxCell>
        <mxCell id="WWqpmh0n9zRF0Py3i-tm-19" value="" style="endArrow=none;html=1;rounded=0;entryX=0.5;entryY=0;entryDx=0;entryDy=0;exitX=0.5;exitY=1;exitDx=0;exitDy=0;" parent="1" source="WWqpmh0n9zRF0Py3i-tm-1" target="WWqpmh0n9zRF0Py3i-tm-1" edge="1">
          <mxGeometry width="50" height="50" relative="1" as="geometry">
            <mxPoint x="500" y="230" as="sourcePoint" />
            <mxPoint x="560" y="190" as="targetPoint" />
          </mxGeometry>
        </mxCell>
        <mxCell id="WWqpmh0n9zRF0Py3i-tm-20" value="" style="endArrow=none;html=1;rounded=0;exitX=0.75;exitY=1;exitDx=0;exitDy=0;entryX=0.75;entryY=0;entryDx=0;entryDy=0;" parent="1" source="WWqpmh0n9zRF0Py3i-tm-1" target="WWqpmh0n9zRF0Py3i-tm-1" edge="1">
          <mxGeometry width="50" height="50" relative="1" as="geometry">
            <mxPoint x="620" y="180" as="sourcePoint" />
            <mxPoint x="670" y="130" as="targetPoint" />
          </mxGeometry>
        </mxCell>
        <mxCell id="WWqpmh0n9zRF0Py3i-tm-22" value="" style="endArrow=classic;html=1;rounded=0;exitX=0;exitY=1;exitDx=0;exitDy=0;edgeStyle=orthogonalEdgeStyle;curved=1;" parent="1" source="WWqpmh0n9zRF0Py3i-tm-1" edge="1">
          <mxGeometry width="50" height="50" relative="1" as="geometry">
            <mxPoint x="370" y="350" as="sourcePoint" />
            <mxPoint x="370" y="360" as="targetPoint" />
          </mxGeometry>
        </mxCell>
        <mxCell id="WWqpmh0n9zRF0Py3i-tm-23" value="" style="endArrow=classic;html=1;rounded=0;exitX=0.5;exitY=1;exitDx=0;exitDy=0;edgeStyle=orthogonalEdgeStyle;curved=1;" parent="1" source="WWqpmh0n9zRF0Py3i-tm-1" edge="1">
          <mxGeometry width="50" height="50" relative="1" as="geometry">
            <mxPoint x="440" y="380" as="sourcePoint" />
            <mxPoint x="180" y="360" as="targetPoint" />
          </mxGeometry>
        </mxCell>
        <mxCell id="WWqpmh0n9zRF0Py3i-tm-25" value="" style="endArrow=classic;html=1;rounded=0;" parent="1" edge="1">
          <mxGeometry width="50" height="50" relative="1" as="geometry">
            <mxPoint x="80" y="760" as="sourcePoint" />
            <mxPoint x="480" y="760" as="targetPoint" />
          </mxGeometry>
        </mxCell>
        <mxCell id="WWqpmh0n9zRF0Py3i-tm-26" value="" style="endArrow=classic;html=1;rounded=0;" parent="1" edge="1">
          <mxGeometry width="50" height="50" relative="1" as="geometry">
            <mxPoint x="280" y="760" as="sourcePoint" />
            <mxPoint x="280" y="600" as="targetPoint" />
          </mxGeometry>
        </mxCell>
        <mxCell id="WWqpmh0n9zRF0Py3i-tm-27" value="$$\theta$$" style="text;html=1;align=center;verticalAlign=middle;whiteSpace=wrap;rounded=0;" parent="1" vertex="1">
          <mxGeometry x="460" y="750" width="60" height="30" as="geometry" />
        </mxCell>
        <mxCell id="WWqpmh0n9zRF0Py3i-tm-28" value="H-plane" style="text;html=1;align=center;verticalAlign=middle;whiteSpace=wrap;rounded=0;" parent="1" vertex="1">
          <mxGeometry x="250" y="540" width="60" height="30" as="geometry" />
        </mxCell>
        <mxCell id="WWqpmh0n9zRF0Py3i-tm-29" value="" style="endArrow=classic;html=1;rounded=0;" parent="1" edge="1">
          <mxGeometry width="50" height="50" relative="1" as="geometry">
            <mxPoint x="520" y="760" as="sourcePoint" />
            <mxPoint x="920" y="760" as="targetPoint" />
          </mxGeometry>
        </mxCell>
        <mxCell id="WWqpmh0n9zRF0Py3i-tm-30" value="" style="endArrow=classic;html=1;rounded=0;" parent="1" edge="1">
          <mxGeometry width="50" height="50" relative="1" as="geometry">
            <mxPoint x="720" y="760" as="sourcePoint" />
            <mxPoint x="720" y="600" as="targetPoint" />
          </mxGeometry>
        </mxCell>
        <mxCell id="WWqpmh0n9zRF0Py3i-tm-31" value="$$\theta$$" style="text;html=1;align=center;verticalAlign=middle;whiteSpace=wrap;rounded=0;" parent="1" vertex="1">
          <mxGeometry x="900" y="740" width="60" height="30" as="geometry" />
        </mxCell>
        <mxCell id="WWqpmh0n9zRF0Py3i-tm-32" value="E-plane" style="text;html=1;align=center;verticalAlign=middle;whiteSpace=wrap;rounded=0;" parent="1" vertex="1">
          <mxGeometry x="690" y="540" width="60" height="30" as="geometry" />
        </mxCell>
        <mxCell id="WWqpmh0n9zRF0Py3i-tm-33" value="" style="endArrow=classic;html=1;rounded=0;exitX=0.25;exitY=1;exitDx=0;exitDy=0;edgeStyle=orthogonalEdgeStyle;curved=1;" parent="1" source="WWqpmh0n9zRF0Py3i-tm-1" edge="1">
          <mxGeometry width="50" height="50" relative="1" as="geometry">
            <mxPoint x="530" y="350" as="sourcePoint" />
            <mxPoint x="800" y="360" as="targetPoint" />
          </mxGeometry>
        </mxCell>
        <mxCell id="WWqpmh0n9zRF0Py3i-tm-34" value="" style="endArrow=classic;html=1;rounded=0;exitX=0.75;exitY=1;exitDx=0;exitDy=0;edgeStyle=orthogonalEdgeStyle;curved=1;" parent="1" source="WWqpmh0n9zRF0Py3i-tm-1" edge="1">
          <mxGeometry width="50" height="50" relative="1" as="geometry">
            <mxPoint x="770" y="300" as="sourcePoint" />
            <mxPoint x="640" y="360" as="targetPoint" />
          </mxGeometry>
        </mxCell>
        <mxCell id="WWqpmh0n9zRF0Py3i-tm-35" value="" style="endArrow=none;html=1;rounded=0;curved=1;" parent="1" edge="1">
          <mxGeometry width="50" height="50" relative="1" as="geometry">
            <mxPoint x="720" y="410" as="sourcePoint" />
            <mxPoint x="880" y="540" as="targetPoint" />
            <Array as="points">
              <mxPoint x="750" y="450" />
              <mxPoint x="760" y="510" />
              <mxPoint x="780" y="490" />
              <mxPoint x="800" y="510" />
              <mxPoint x="820" y="520" />
            </Array>
          </mxGeometry>
        </mxCell>
        <mxCell id="WWqpmh0n9zRF0Py3i-tm-36" value="" style="endArrow=none;html=1;rounded=0;curved=1;" parent="1" edge="1">
          <mxGeometry width="50" height="50" relative="1" as="geometry">
            <mxPoint x="560" y="410" as="sourcePoint" />
            <mxPoint x="720" y="540" as="targetPoint" />
            <Array as="points">
              <mxPoint x="590" y="450" />
              <mxPoint x="600" y="510" />
              <mxPoint x="620" y="490" />
              <mxPoint x="640" y="510" />
              <mxPoint x="660" y="520" />
            </Array>
          </mxGeometry>
        </mxCell>
        <mxCell id="WWqpmh0n9zRF0Py3i-tm-37" value="" style="endArrow=none;html=1;rounded=0;curved=1;" parent="1" edge="1">
          <mxGeometry width="50" height="50" relative="1" as="geometry">
            <mxPoint x="720" y="630" as="sourcePoint" />
            <mxPoint x="880" y="760" as="targetPoint" />
            <Array as="points">
              <mxPoint x="750" y="670" />
              <mxPoint x="760" y="730" />
              <mxPoint x="780" y="710" />
              <mxPoint x="800" y="730" />
              <mxPoint x="820" y="740" />
            </Array>
          </mxGeometry>
        </mxCell>
        <mxCell id="WWqpmh0n9zRF0Py3i-tm-38" value="" style="endArrow=none;html=1;rounded=0;curved=1;" parent="1" edge="1">
          <mxGeometry width="50" height="50" relative="1" as="geometry">
            <mxPoint x="280" y="410" as="sourcePoint" />
            <mxPoint x="440" y="540" as="targetPoint" />
            <Array as="points">
              <mxPoint x="310" y="450" />
              <mxPoint x="320" y="510" />
              <mxPoint x="340" y="490" />
              <mxPoint x="360" y="510" />
              <mxPoint x="380" y="520" />
            </Array>
          </mxGeometry>
        </mxCell>
        <mxCell id="WWqpmh0n9zRF0Py3i-tm-39" value="" style="endArrow=none;html=1;rounded=0;curved=1;" parent="1" edge="1">
          <mxGeometry width="50" height="50" relative="1" as="geometry">
            <mxPoint x="120" y="410" as="sourcePoint" />
            <mxPoint x="280" y="540" as="targetPoint" />
            <Array as="points">
              <mxPoint x="150" y="450" />
              <mxPoint x="160" y="510" />
              <mxPoint x="180" y="490" />
              <mxPoint x="200" y="510" />
              <mxPoint x="220" y="520" />
            </Array>
          </mxGeometry>
        </mxCell>
        <mxCell id="WWqpmh0n9zRF0Py3i-tm-40" value="" style="endArrow=none;html=1;rounded=0;curved=1;" parent="1" edge="1">
          <mxGeometry width="50" height="50" relative="1" as="geometry">
            <mxPoint x="720" y="630" as="sourcePoint" />
            <mxPoint x="560" y="760" as="targetPoint" />
            <Array as="points">
              <mxPoint x="690" y="670" />
              <mxPoint x="680" y="730" />
              <mxPoint x="660" y="710" />
              <mxPoint x="640" y="730" />
              <mxPoint x="620" y="740" />
            </Array>
          </mxGeometry>
        </mxCell>
        <mxCell id="WWqpmh0n9zRF0Py3i-tm-41" value="" style="endArrow=none;html=1;rounded=0;curved=1;" parent="1" edge="1">
          <mxGeometry width="50" height="50" relative="1" as="geometry">
            <mxPoint x="280" y="630" as="sourcePoint" />
            <mxPoint x="440" y="760" as="targetPoint" />
            <Array as="points">
              <mxPoint x="310" y="670" />
              <mxPoint x="320" y="730" />
              <mxPoint x="340" y="710" />
              <mxPoint x="360" y="730" />
              <mxPoint x="380" y="740" />
            </Array>
          </mxGeometry>
        </mxCell>
        <mxCell id="WWqpmh0n9zRF0Py3i-tm-42" value="" style="endArrow=none;html=1;rounded=0;curved=1;" parent="1" edge="1">
          <mxGeometry width="50" height="50" relative="1" as="geometry">
            <mxPoint x="280" y="630" as="sourcePoint" />
            <mxPoint x="120" y="760" as="targetPoint" />
            <Array as="points">
              <mxPoint x="250" y="670" />
              <mxPoint x="240" y="730" />
              <mxPoint x="220" y="710" />
              <mxPoint x="200" y="730" />
              <mxPoint x="180" y="740" />
            </Array>
          </mxGeometry>
        </mxCell>
        <mxCell id="WWqpmh0n9zRF0Py3i-tm-43" value="" style="endArrow=classic;html=1;rounded=0;" parent="1" edge="1">
          <mxGeometry width="50" height="50" relative="1" as="geometry">
            <mxPoint x="160" y="560" as="sourcePoint" />
            <mxPoint x="160" y="660" as="targetPoint" />
          </mxGeometry>
        </mxCell>
        <mxCell id="WWqpmh0n9zRF0Py3i-tm-44" value="Flip Data" style="edgeLabel;html=1;align=center;verticalAlign=middle;resizable=0;points=[];" parent="WWqpmh0n9zRF0Py3i-tm-43" vertex="1" connectable="0">
          <mxGeometry x="-0.22" y="-1" relative="1" as="geometry">
            <mxPoint y="11" as="offset" />
          </mxGeometry>
        </mxCell>
        <mxCell id="WWqpmh0n9zRF0Py3i-tm-45" value="" style="endArrow=classic;html=1;rounded=0;" parent="1" edge="1">
          <mxGeometry width="50" height="50" relative="1" as="geometry">
            <mxPoint x="599.4100000000001" y="560" as="sourcePoint" />
            <mxPoint x="599.4100000000001" y="660" as="targetPoint" />
          </mxGeometry>
        </mxCell>
        <mxCell id="WWqpmh0n9zRF0Py3i-tm-46" value="Flip Data" style="edgeLabel;html=1;align=center;verticalAlign=middle;resizable=0;points=[];" parent="WWqpmh0n9zRF0Py3i-tm-45" vertex="1" connectable="0">
          <mxGeometry x="-0.22" y="-1" relative="1" as="geometry">
            <mxPoint x="2" y="11" as="offset" />
          </mxGeometry>
        </mxCell>
        <mxCell id="WWqpmh0n9zRF0Py3i-tm-47" value="&lt;font style=&quot;font-size: 17px;&quot;&gt;&lt;b&gt;FF-data set&lt;/b&gt;&lt;/font&gt;" style="text;html=1;align=center;verticalAlign=middle;whiteSpace=wrap;rounded=0;" parent="1" vertex="1">
          <mxGeometry x="345" y="-20" width="310" height="30" as="geometry" />
        </mxCell>
        <mxCell id="WWqpmh0n9zRF0Py3i-tm-48" value="Amp" style="text;html=1;align=center;verticalAlign=middle;whiteSpace=wrap;rounded=0;" parent="1" vertex="1">
          <mxGeometry x="710" y="360" width="60" height="30" as="geometry" />
        </mxCell>
        <mxCell id="WWqpmh0n9zRF0Py3i-tm-49" value="Amp" style="text;html=1;align=center;verticalAlign=middle;whiteSpace=wrap;rounded=0;" parent="1" vertex="1">
          <mxGeometry x="270" y="360" width="60" height="30" as="geometry" />
        </mxCell>
        <mxCell id="WWqpmh0n9zRF0Py3i-tm-50" value="Amp" style="text;html=1;align=center;verticalAlign=middle;whiteSpace=wrap;rounded=0;" parent="1" vertex="1">
          <mxGeometry x="710" y="580" width="60" height="30" as="geometry" />
        </mxCell>
        <mxCell id="WWqpmh0n9zRF0Py3i-tm-51" value="Amp" style="text;html=1;align=center;verticalAlign=middle;whiteSpace=wrap;rounded=0;" parent="1" vertex="1">
          <mxGeometry x="270" y="580" width="60" height="30" as="geometry" />
        </mxCell>
      </root>
    </mxGraphModel>
  </diagram>
</mxfile>
